# xmcd CD database file
#
# Track frame offsets:
#	150
#	26841
#	49532
#	83514
#	107131
#	137000
#	157038
#	178191
#	204745
#	225377
#	247715
#	274982
#
# Disc length: 3913 seconds
#
# Revision: 0
# Processed by: cddbd v1.5.2PL0 Copyright (c) Steve Scherf et al.
# Submitted via: CDex 1.70beta2
#
DISCID=9b0f470c
DTITLE=Clark, Stanley - 1,2 to the bass
DYEAR=1900
DGENRE=Jazz
TTITLE0=1, 2, To the Bass (featuring Q-Tip)
TTITLE1=Anna (She Loves The Good Life)
TTITLE2=Bout the Bass
TTITLE3=Hair
TTITLE4=I Shall Not Be Moved
TTITLE5=Just Cruizin
TTITLE6=Los Caballos (The Horses)
TTITLE7=Shanti
TTITLE8=Simply Said
TTITLE9=Todos Los Ni?os (All the Children)
TTITLE10=Touch
TTITLE11=Where Is The Love (featuring Glenn Lewis  Amel La
EXTD=
EXTT0=
EXTT1=
EXTT2=
EXTT3=
EXTT4=
EXTT5=
EXTT6=
EXTT7=
EXTT8=
EXTT9=
EXTT10=
EXTT11=
PLAYORDER=
